<svg viewBox="-2 -2 104 104" fill="none" xmlns="http://www.w3.org/2000/svg">
  <!-- Cream/Beige background to match the uploaded logo image -->
  <rect x="-2" y="-2" width="104" height="104" fill="#F4F1EB" rx="16" />

  <!-- Forest green circles -->
  <circle cx="50" cy="50" r="47" stroke="#163828" stroke-width="1.2" />
  <circle cx="50" cy="50" r="44.5" stroke="#163828" stroke-width="0.6" />
  
  <path id="taglinePath" d="M 16.8 73.2 A 40.5 40.5 0 0 0 83.2 73.2" fill="none" />
  <!-- Forest green text -->
  <text font-family="sans-serif" font-weight="600" font-size="2.5" fill="#163828" letter-spacing="0.15em">
    <textPath href="#taglinePath" startOffset="50%" text-anchor="middle">
      • WHERE EVERY STAY BECOMES A STORY •
    </textPath>
  </text>

  <!-- Gold A Monogram -->
  <g transform="translate(0, -3)">
    <path d="M43.5 22 L37.5 45.5" stroke="url(#metallicGold)" stroke-width="1.2" stroke-linecap="round" />
    <path d="M50.5 18 C52.5 20.5 59.5 37 61.5 42 C62 43 60.5 43.5 59.5 41 C57.5 36.5 51 22 49.5 19.5 C49 18.5 50 17.5 50.5 18 Z" fill="url(#metallicGold)" />
    <path d="M37.5 37 C42.5 34.5 50.5 38.5 56.5 42.5 C60.5 45 63.5 45 65 44 C63.5 43.5 60.5 42.5 56 39.5 C50.5 35.5 42.5 32.5 37.5 35 C36.8 35.4 36.8 36.6 37.5 37 Z" fill="url(#metallicGold)" />
  </g>

  <!-- Forest green lines -->
  <line x1="20" y1="64" x2="30" y2="64" stroke="#163828" stroke-width="0.8" />
  <line x1="70" y1="64" x2="80" y2="64" stroke="#163828" stroke-width="0.8" />

  <g transform="translate(0, 1.5)">
    <!-- Forest green text -->
    <text x="44" y="55" text-anchor="end" font-family="sans-serif" font-weight="400" font-size="9.5" fill="#163828" letter-spacing="0.18em">AV</text>
    <text x="56" y="55" text-anchor="start" font-family="sans-serif" font-weight="400" font-size="9.5" fill="#163828" letter-spacing="0.18em">NOR</text>
    <line x1="47.5" y1="48" x2="52" y2="48" stroke="#163828" stroke-width="1.1" />
    <line x1="47.5" y1="51.5" x2="50.8" y2="51.5" stroke="#163828" stroke-width="1.1" />
    <line x1="47.5" y1="55" x2="52" y2="55" stroke="#163828" stroke-width="1.1" />
  </g>

  <!-- Forest green text -->
  <text x="50" y="65.5" text-anchor="middle" font-family="sans-serif" font-weight="500" font-size="4.2" fill="#163828" letter-spacing="0.25em">HOSPITALITY</text>
  <path d="M50 71 Q50 73.5 47.5 73.5 Q50 73.5 50 76 Q50 73.5 52.5 73.5 Q50 73.5 50 71" fill="url(#metallicGold)" />

  <!-- Gold Gradient -->
  <defs>
    <linearGradient id="metallicGold" x1="30" y1="15" x2="70" y2="75" gradientUnits="userSpaceOnUse">
      <stop offset="0%" stop-color="#E8D091" />
      <stop offset="25%" stop-color="#C2A878" />
      <stop offset="50%" stop-color="#987F54" />
      <stop offset="75%" stop-color="#C2A878" />
      <stop offset="100%" stop-color="#8C6721" />
    </linearGradient>
  </defs>
</svg>
